REM DIRINDEX 1\2,1\3,1\4,1\5
REM DIRNAME "folder01","folder02","folder03","folder04","folder05"
TITLE ""
FILE "1Q_t_2088-2100.mp3" MP3
  TRACK 01 AUDIO
    TITLE "3:cjc172_7275"
    INDEX 01 00:00:00
  TRACK 02 AUDIO
    TITLE "0:"
    INDEX 01 00:01:18
  TRACK 03 AUDIO
    TITLE "4:cjc172_7276"
    INDEX 01 00:01:25
  TRACK 04 AUDIO
    TITLE "0:"
    INDEX 01 00:05:66
  TRACK 05 AUDIO
    TITLE "5:cjc172_7277"
    INDEX 01 00:05:74
  TRACK 06 AUDIO
    TITLE "0:"
    INDEX 01 00:10:26
  TRACK 07 AUDIO
    TITLE "3:cjc172_7278"
    INDEX 01 00:10:71
  TRACK 08 AUDIO
    TITLE "0:"
    INDEX 01 00:12:08
  TRACK 09 AUDIO
    TITLE "4:cjc172_7279"
    INDEX 01 00:12:15
  TRACK 10 AUDIO
    TITLE "0:"
    INDEX 01 00:14:46
  TRACK 11 AUDIO
    TITLE "5:cjc172_7280"
    INDEX 01 00:14:54
  TRACK 12 AUDIO
    TITLE "0:"
    INDEX 01 00:19:33
  TRACK 13 AUDIO
    TITLE "3:cjc172_7281"
    INDEX 01 00:20:05
  TRACK 14 AUDIO
    TITLE "0:"
    INDEX 01 00:21:14
  TRACK 15 AUDIO
    TITLE "4:cjc172_7282"
    INDEX 01 00:21:28
  TRACK 16 AUDIO
    TITLE "0:"
    INDEX 01 00:24:03
  TRACK 17 AUDIO
    TITLE "5:cjc172_7283"
    INDEX 01 00:24:11
  TRACK 18 AUDIO
    TITLE "0:"
    INDEX 01 00:28:54
  TRACK 19 AUDIO
    TITLE "3:cjc172_7284"
    INDEX 01 00:29:28
  TRACK 20 AUDIO
    TITLE "0:"
    INDEX 01 00:30:49
  TRACK 21 AUDIO
    TITLE "4:cjc172_7285"
    INDEX 01 00:30:58
  TRACK 22 AUDIO
    TITLE "0:"
    INDEX 01 00:33:16
  TRACK 23 AUDIO
    TITLE "5:cjc172_7286"
    INDEX 01 00:33:22
  TRACK 24 AUDIO
    TITLE "0:"
    INDEX 01 00:38:05
  TRACK 25 AUDIO
    TITLE "3:cjc172_7287"
    INDEX 01 00:38:52
  TRACK 26 AUDIO
    TITLE "0:"
    INDEX 01 00:39:73
  TRACK 27 AUDIO
    TITLE "4:cjc172_7288"
    INDEX 01 00:40:08
  TRACK 28 AUDIO
    TITLE "0:"
    INDEX 01 00:42:73
  TRACK 29 AUDIO
    TITLE "5:cjc172_7289"
    INDEX 01 00:43:04
  TRACK 30 AUDIO
    TITLE "0:"
    INDEX 01 00:48:19
  TRACK 31 AUDIO
    TITLE "3:cjc172_7290"
    INDEX 01 00:48:64
  TRACK 32 AUDIO
    TITLE "0:"
    INDEX 01 00:49:75
  TRACK 33 AUDIO
    TITLE "4:cjc172_7291"
    INDEX 01 00:50:08
  TRACK 34 AUDIO
    TITLE "0:"
    INDEX 01 00:51:19
  TRACK 35 AUDIO
    TITLE "5:cjc172_7292"
    INDEX 01 00:51:27
  TRACK 36 AUDIO
    TITLE "0:"
    INDEX 01 00:55:37
  TRACK 37 AUDIO
    TITLE "3:cjc172_7293"
    INDEX 01 00:56:09
  TRACK 38 AUDIO
    TITLE "0:"
    INDEX 01 00:57:14
  TRACK 39 AUDIO
    TITLE "4:cjc172_7294"
    INDEX 01 00:57:24
  TRACK 40 AUDIO
    TITLE "0:"
    INDEX 01 00:59:15
  TRACK 41 AUDIO
    TITLE "5:cjc172_7295"
    INDEX 01 00:59:23
  TRACK 42 AUDIO
    TITLE "0:"
    INDEX 01 01:03:72
  TRACK 43 AUDIO
    TITLE "3:cjc172_7296"
    INDEX 01 01:04:46
  TRACK 44 AUDIO
    TITLE "0:"
    INDEX 01 01:05:59
  TRACK 45 AUDIO
    TITLE "4:cjc172_7297"
    INDEX 01 01:05:69
  TRACK 46 AUDIO
    TITLE "0:"
    INDEX 01 01:07:22
  TRACK 47 AUDIO
    TITLE "5:cjc172_7298"
    INDEX 01 01:07:32
  TRACK 48 AUDIO
    TITLE "0:"
    INDEX 01 01:10:72
  TRACK 49 AUDIO
    TITLE "3:cjc172_7299"
    INDEX 01 01:11:44
  TRACK 50 AUDIO
    TITLE "0:"
    INDEX 01 01:12:51
  TRACK 51 AUDIO
    TITLE "4:cjc172_7300"
    INDEX 01 01:12:61
  TRACK 52 AUDIO
    TITLE "0:"
    INDEX 01 01:16:27
  TRACK 53 AUDIO
    TITLE "5:cjc172_7301"
    INDEX 01 01:16:37
  TRACK 54 AUDIO
    TITLE "0:"
    INDEX 01 01:21:15
  TRACK 55 AUDIO
    TITLE "3:cjc172_7302"
    INDEX 01 01:21:60
  TRACK 56 AUDIO
    TITLE "0:"
    INDEX 01 01:23:04
  TRACK 57 AUDIO
    TITLE "4:cjc172_7303"
    INDEX 01 01:23:16
  TRACK 58 AUDIO
    TITLE "0:"
    INDEX 01 01:25:44
  TRACK 59 AUDIO
    TITLE "5:cjc172_7304"
    INDEX 01 01:25:50
  TRACK 60 AUDIO
    TITLE "0:"
    INDEX 01 01:29:49
  TRACK 61 AUDIO
    TITLE "3:cjc172_7305"
    INDEX 01 01:30:19
  TRACK 62 AUDIO
    TITLE "0:"
    INDEX 01 01:31:39
  TRACK 63 AUDIO
    TITLE "4:cjc172_7306"
    INDEX 01 01:31:46
  TRACK 64 AUDIO
    TITLE "0:"
    INDEX 01 01:33:65
  TRACK 65 AUDIO
    TITLE "5:cjc172_7307"
    INDEX 01 01:33:73
  TRACK 66 AUDIO
    TITLE "0:"
    INDEX 01 01:39:65
  TRACK 67 AUDIO
    TITLE "3:cjc172_7308"
    INDEX 01 01:40:36
  TRACK 68 AUDIO
    TITLE "0:"
    INDEX 01 01:41:58
  TRACK 69 AUDIO
    TITLE "4:cjc172_7309"
    INDEX 01 01:41:66
  TRACK 70 AUDIO
    TITLE "0:"
    INDEX 01 01:44:69
  TRACK 71 AUDIO
    TITLE "5:cjc172_7310"
    INDEX 01 01:45:01
  TRACK 72 AUDIO
    TITLE "0:"
    INDEX 01 01:51:24
  TRACK 73 AUDIO
    TITLE "2:cjc172_7311"
    INDEX 01 01:51:71
  TRACK 74 AUDIO
    TITLE "0:"
    INDEX 01 01:53:03
  TRACK 75 AUDIO
    TITLE "3:cjc172_7312"
    INDEX 01 01:53:48
  TRACK 76 AUDIO
    TITLE "0:"
    INDEX 01 01:54:71
  TRACK 77 AUDIO
    TITLE "4:cjc172_7313"
    INDEX 01 01:55:06
  TRACK 78 AUDIO
    TITLE "0:"
    INDEX 01 01:56:72
  TRACK 79 AUDIO
    TITLE "5:cjc172_7314"
    INDEX 01 01:57:05
  TRACK 80 AUDIO
    TITLE "0:"
    INDEX 01 02:00:68
